<?xml version="1.0" encoding="utf-8"?>
<!-- Generator: Adobe Illustrator 15.0.0, SVG Export Plug-In . SVG Version: 6.00 Build 0)  -->
<!DOCTYPE svg PUBLIC "-//W3C//DTD SVG 1.1//EN" "http://www.w3.org/Graphics/SVG/1.1/DTD/svg11.dtd">
<svg version="1.1" xmlns="http://www.w3.org/2000/svg" xmlns:xlink="http://www.w3.org/1999/xlink" x="0px" y="0px" width="1080px"
	 height="216px" viewBox="0 0 1080 216" enable-background="new 0 0 1080 216" xml:space="preserve">
<g id="background">
</g>
<g id="wireframe">
</g>
<g id="text">
	<rect y="0.001" fill="#639A89" width="1080" height="216"/>
	<g>
		<defs>
			<rect id="SVGID_1_" width="1080" height="216.001"/>
		</defs>
		<clipPath id="SVGID_2_">
			<use xlink:href="#SVGID_1_"  overflow="visible"/>
		</clipPath>
		<path clip-path="url(#SVGID_2_)" fill="#25917F" d="M383.47,250.088c2.255,6.028-0.867,12.767-6.97,15.049L83.653,374.635
			c-6.104,2.281-12.88-0.756-15.135-6.785L21.579,242.311c-2.254-6.029,0.867-12.768,6.969-15.05l292.847-109.498
			c6.103-2.281,12.88,0.756,15.135,6.785L383.47,250.088z"/>
		<path clip-path="url(#SVGID_2_)" fill="#25917F" d="M546.805,192.747c1.578,4.222-0.563,8.922-4.784,10.501l-137.555,51.433
			c-4.221,1.577-8.922-0.565-10.5-4.786l-4.491-12.009c-1.577-4.22,0.565-8.921,4.786-10.499l137.555-51.432
			c4.221-1.578,8.921,0.564,10.498,4.783L546.805,192.747z"/>
		<path clip-path="url(#SVGID_2_)" fill="#25917F" d="M516.873,112.693c1.577,4.221-0.563,8.922-4.786,10.5l-137.555,51.432
			c-4.221,1.58-8.921-0.562-10.498-4.783l-4.491-12.009c-1.578-4.22,0.563-8.922,4.784-10.499L501.882,95.9
			c4.221-1.578,8.922,0.564,10.5,4.785L516.873,112.693z"/>
		<path clip-path="url(#SVGID_2_)" fill="#25917F" d="M531.839,152.721c1.578,4.221-0.563,8.922-4.784,10.5l-137.557,51.433
			c-4.221,1.577-8.921-0.564-10.498-4.784l-4.491-12.009c-1.578-4.221,0.563-8.921,4.784-10.501l137.557-51.432
			c4.221-1.578,8.921,0.564,10.498,4.784L531.839,152.721z"/>
		<path clip-path="url(#SVGID_2_)" fill="#25917F" d="M501.904,72.667c1.58,4.221-0.562,8.921-4.784,10.499L359.566,134.6
			c-4.221,1.578-8.921-0.564-10.5-4.785l-4.489-12.01c-1.578-4.219,0.562-8.92,4.784-10.498l137.554-51.434
			c4.222-1.578,8.923,0.565,10.501,4.785L501.904,72.667z"/>
		<path clip-path="url(#SVGID_2_)" fill="#25917F" d="M580.888,283.898c1.578,4.221-0.562,8.924-4.783,10.502L114.326,467.062
			c-4.221,1.578-8.921-0.564-10.5-4.787L79.54,397.324c-1.577-4.221,0.563-8.92,4.784-10.5l461.778-172.662
			c4.221-1.577,8.92,0.564,10.498,4.785L580.888,283.898z"/>
		<path clip-path="url(#SVGID_2_)" fill="#25917F" d="M163.398,155.69c1.578,4.221-0.564,8.921-4.784,10.499L21.058,217.623
			c-4.22,1.578-8.92-0.564-10.498-4.785l-14.696-39.302c-1.577-4.221,0.564-8.921,4.785-10.499l137.556-51.434
			c4.221-1.578,8.921,0.564,10.498,4.785L163.398,155.69z"/>
		<path clip-path="url(#SVGID_2_)" fill="#25917F" d="M487.62,34.461c1.578,4.221-0.563,8.921-4.784,10.5L345.28,96.393
			c-4.221,1.579-8.922-0.562-10.499-4.784l-14.695-39.302c-1.579-4.221,0.564-8.92,4.784-10.499L462.426-9.625
			c4.221-1.578,8.921,0.563,10.498,4.785L487.62,34.461z"/>
		<path clip-path="url(#SVGID_2_)" fill="#25917F" d="M325.509,95.076c1.579,4.221-0.563,8.921-4.785,10.498L183.17,157.008
			c-4.221,1.578-8.922-0.563-10.5-4.784l-14.694-39.302c-1.579-4.221,0.562-8.922,4.784-10.5L300.313,50.99
			c4.221-1.578,8.923,0.562,10.501,4.783L325.509,95.076z"/>
		
			<line clip-path="url(#SVGID_2_)" fill="#639A89" stroke="#639A89" stroke-width="7" stroke-linecap="round" stroke-linejoin="round" stroke-miterlimit="10" x1="76.683" y1="389.682" x2="583.744" y2="291.543"/>
		
			<line clip-path="url(#SVGID_2_)" fill="#639A89" stroke="#639A89" stroke-width="7" stroke-linecap="round" stroke-linejoin="round" stroke-miterlimit="10" x1="553.745" y1="211.306" x2="106.684" y2="469.918"/>
		
			<line clip-path="url(#SVGID_2_)" fill="none" stroke="#639A89" stroke-width="7" stroke-linecap="round" stroke-linejoin="round" stroke-miterlimit="10" x1="17.497" y1="231.393" x2="387.552" y2="261.004"/>
		
			<line clip-path="url(#SVGID_2_)" fill="none" stroke="#639A89" stroke-width="7" stroke-linecap="round" stroke-linejoin="round" stroke-miterlimit="10" x1="332.447" y1="113.631" x2="72.602" y2="378.766"/>
		<path clip-path="url(#SVGID_2_)" fill="#25917F" d="M139.932,92.931c1.578,4.22-0.563,8.921-4.784,10.499L-2.408,154.863
			c-4.221,1.578-8.921-0.564-10.499-4.785l-14.695-39.302c-1.577-4.22,0.564-8.921,4.785-10.499l137.555-51.433
			c4.221-1.579,8.921,0.563,10.499,4.784L139.932,92.931z"/>
		<path clip-path="url(#SVGID_2_)" fill="#25917F" d="M464.153-28.299c1.578,4.221-0.563,8.922-4.784,10.5L321.814,33.633
			c-4.221,1.579-8.923-0.562-10.5-4.783L296.62-10.453c-1.578-4.221,0.563-8.92,4.784-10.498l137.555-51.434
			c4.221-1.578,8.921,0.563,10.5,4.785L464.153-28.299z"/>
		<path clip-path="url(#SVGID_2_)" fill="#25917F" d="M302.044,32.316c1.577,4.221-0.565,8.921-4.787,10.499L159.703,94.248
			c-4.221,1.578-8.921-0.564-10.5-4.784l-14.694-39.302c-1.578-4.221,0.564-8.922,4.785-10.499L276.849-11.77
			c4.221-1.578,8.921,0.562,10.499,4.783L302.044,32.316z"/>
		<path clip-path="url(#SVGID_2_)" fill="#25917F" d="M440.267-92.186c1.578,4.221-0.565,8.92-4.786,10.499L-26.296,90.976
			c-4.221,1.578-8.92-0.563-10.499-4.784l-24.286-64.953c-1.578-4.221,0.563-8.922,4.784-10.5l461.778-172.662
			c4.221-1.578,8.92,0.564,10.498,4.785L440.267-92.186z"/>
		
			<line clip-path="url(#SVGID_2_)" fill="#639A89" stroke="#639A89" stroke-width="7" stroke-linecap="round" stroke-linejoin="round" stroke-miterlimit="10" x1="-63.939" y1="13.596" x2="443.123" y2="-84.544"/>
		
			<line clip-path="url(#SVGID_2_)" fill="#639A89" stroke="#639A89" stroke-width="7" stroke-linecap="round" stroke-linejoin="round" stroke-miterlimit="10" x1="413.121" y1="-164.781" x2="-33.938" y2="93.833"/>
		<path clip-path="url(#SVGID_2_)" fill="#25917F" d="M980.861,147.988c2.255,6.029-0.866,12.768-6.97,15.051L681.046,272.535
			c-6.105,2.283-12.88-0.756-15.135-6.785l-46.94-125.538c-2.253-6.03,0.867-12.768,6.97-15.05L918.786,15.664
			c6.104-2.281,12.881,0.756,15.135,6.785L980.861,147.988z"/>
		<path clip-path="url(#SVGID_2_)" fill="#25917F" d="M1144.196,90.649c1.578,4.22-0.562,8.921-4.783,10.499l-137.555,51.434
			c-4.221,1.578-8.923-0.565-10.5-4.785l-4.492-12.01c-1.577-4.22,0.566-8.92,4.787-10.498l137.555-51.434
			c4.221-1.578,8.92,0.564,10.498,4.785L1144.196,90.649z"/>
		<path clip-path="url(#SVGID_2_)" fill="#25917F" d="M1114.265,10.596c1.578,4.221-0.562,8.921-4.786,10.499L971.925,72.527
			c-4.222,1.578-8.922-0.564-10.499-4.784l-4.491-12.009c-1.578-4.221,0.563-8.922,4.784-10.5l137.555-51.433
			c4.221-1.578,8.923,0.564,10.501,4.785L1114.265,10.596z"/>
		<path clip-path="url(#SVGID_2_)" fill="#25917F" d="M1129.231,50.623c1.577,4.22-0.564,8.92-4.785,10.498L986.89,112.555
			c-4.221,1.578-8.92-0.564-10.498-4.785l-4.49-12.008c-1.578-4.221,0.562-8.922,4.783-10.5l137.557-51.433
			c4.221-1.579,8.921,0.564,10.498,4.784L1129.231,50.623z"/>
		<path clip-path="url(#SVGID_2_)" fill="#25917F" d="M1099.296-29.432c1.58,4.221-0.562,8.921-4.783,10.5L956.958,32.5
			c-4.221,1.579-8.92-0.562-10.498-4.783l-4.491-12.01c-1.577-4.219,0.563-8.921,4.784-10.499l137.555-51.433
			c4.221-1.578,8.922,0.564,10.5,4.784L1099.296-29.432z"/>
		<path clip-path="url(#SVGID_2_)" fill="#25917F" d="M1178.28,181.802c1.578,4.221-0.563,8.921-4.784,10.499L711.718,364.965
			c-4.221,1.578-8.92-0.566-10.498-4.787l-24.287-64.951c-1.578-4.221,0.562-8.922,4.783-10.5l461.778-172.662
			c4.222-1.578,8.921,0.563,10.499,4.784L1178.28,181.802z"/>
		<path clip-path="url(#SVGID_2_)" fill="#25917F" d="M760.79,53.592c1.578,4.221-0.562,8.921-4.784,10.499L618.45,115.523
			c-4.219,1.578-8.921-0.562-10.499-4.783l-14.696-39.303c-1.577-4.221,0.565-8.921,4.787-10.498L735.596,9.506
			c4.221-1.578,8.921,0.562,10.499,4.784L760.79,53.592z"/>
		<path clip-path="url(#SVGID_2_)" fill="#25917F" d="M1085.012-67.637c1.578,4.22-0.563,8.92-4.784,10.498L942.673-5.705
			c-4.221,1.578-8.922-0.564-10.5-4.785l-14.693-39.301c-1.58-4.221,0.562-8.922,4.783-10.5l137.555-51.433
			c4.221-1.578,8.921,0.563,10.498,4.784L1085.012-67.637z"/>
		<path clip-path="url(#SVGID_2_)" fill="#25917F" d="M922.902-7.022c1.577,4.22-0.565,8.921-4.786,10.499L780.562,54.909
			c-4.221,1.578-8.921-0.563-10.498-4.784l-14.696-39.302c-1.578-4.221,0.563-8.921,4.784-10.499l137.555-51.433
			c4.221-1.579,8.922,0.563,10.5,4.784L922.902-7.022z"/>
		
			<line clip-path="url(#SVGID_2_)" fill="#639A89" stroke="#639A89" stroke-width="7" stroke-linecap="round" stroke-linejoin="round" stroke-miterlimit="10" x1="674.076" y1="287.584" x2="1181.136" y2="189.443"/>
		
			<line clip-path="url(#SVGID_2_)" fill="#639A89" stroke="#639A89" stroke-width="7" stroke-linecap="round" stroke-linejoin="round" stroke-miterlimit="10" x1="1151.137" y1="109.207" x2="704.075" y2="367.82"/>
		
			<line clip-path="url(#SVGID_2_)" fill="none" stroke="#639A89" stroke-width="7" stroke-linecap="round" stroke-linejoin="round" stroke-miterlimit="10" x1="614.89" y1="129.295" x2="984.943" y2="158.906"/>
		
			<line clip-path="url(#SVGID_2_)" fill="none" stroke="#639A89" stroke-width="7" stroke-linecap="round" stroke-linejoin="round" stroke-miterlimit="10" x1="929.84" y1="11.531" x2="669.994" y2="276.668"/>
		<path clip-path="url(#SVGID_2_)" fill="#25917F" d="M737.323-9.168c1.578,4.221-0.562,8.921-4.783,10.5L594.985,52.764
			c-4.221,1.578-8.923-0.563-10.501-4.783L569.791,8.678c-1.578-4.221,0.562-8.92,4.784-10.498l137.554-51.434
			c4.222-1.578,8.921,0.564,10.501,4.784L737.323-9.168z"/>
		<path clip-path="url(#SVGID_2_)" fill="#25917F" d="M1061.545-130.397c1.578,4.221-0.563,8.922-4.784,10.499L919.206-68.465
			c-4.221,1.578-8.922-0.564-10.5-4.784l-14.693-39.302c-1.578-4.221,0.562-8.922,4.783-10.499l137.555-51.434
			c4.221-1.578,8.921,0.563,10.5,4.784L1061.545-130.397z"/>
		<path clip-path="url(#SVGID_2_)" fill="#25917F" d="M899.436-69.782c1.577,4.22-0.565,8.921-4.786,10.499L757.095-7.851
			c-4.221,1.578-8.921-0.563-10.498-4.784L731.9-51.937c-1.578-4.22,0.565-8.921,4.786-10.499l137.555-51.433
			c4.221-1.579,8.92,0.563,10.498,4.784L899.436-69.782z"/>
		<path clip-path="url(#SVGID_2_)" fill="#25917F" d="M1037.659-194.284c1.577,4.221-0.566,8.921-4.787,10.499L571.097-11.123
			c-4.221,1.578-8.921-0.563-10.499-4.784L536.311-80.86c-1.577-4.221,0.563-8.921,4.784-10.499l461.778-172.663
			c4.221-1.578,8.921,0.564,10.498,4.785L1037.659-194.284z"/>
		
			<line clip-path="url(#SVGID_2_)" fill="#639A89" stroke="#639A89" stroke-width="7" stroke-linecap="round" stroke-linejoin="round" stroke-miterlimit="10" x1="533.452" y1="-88.502" x2="1040.515" y2="-186.643"/>
		
			<line clip-path="url(#SVGID_2_)" fill="#639A89" stroke="#639A89" stroke-width="7" stroke-linecap="round" stroke-linejoin="round" stroke-miterlimit="10" x1="1010.513" y1="-266.88" x2="563.454" y2="-8.266"/>
	</g>
</g>
<g id="object">
</g>
</svg>
